<svg width="114" height="96" viewBox="0 0 114 96" fill="none" xmlns="http://www.w3.org/2000/svg">
<path d="M16.8344 49.3706L7.48473 46.7933L6.46426 50.4953L3.76094 49.7502L6.73694 38.9541L9.44025 39.6993L8.42452 43.3841L17.7742 45.9614L16.8344 49.3706Z" fill="#00FF0B"/>
<path d="M19.0632 42.4832L10.4391 38.0857L11.9076 35.2057L14.4216 36.4876L13.4866 36.5521C12.9693 35.9676 12.6976 35.3078 12.6714 34.5727C12.6347 33.8322 12.8245 33.0536 13.241 32.2368L15.9619 33.6242C15.8704 33.7512 15.7976 33.8678 15.7435 33.9739C15.6842 34.064 15.6248 34.1673 15.5653 34.284C15.2516 34.8993 15.1671 35.4844 15.3118 36.0393C15.446 36.5889 15.8896 37.0557 16.6427 37.4397L20.6048 39.4599L19.0632 42.4832Z" fill="#00FF0B"/>
<path d="M26.1176 31.8585C25.3632 32.7173 24.542 33.3272 23.6541 33.6884C22.7652 34.0327 21.8817 34.1362 21.0038 33.9989C20.1248 33.8448 19.323 33.4495 18.5985 32.8129C17.8739 32.1763 17.3791 31.4405 17.1142 30.6055C16.8482 29.7536 16.8259 28.8861 17.0472 28.0027C17.2596 27.1115 17.6998 26.2857 18.3678 25.5254C18.9965 24.8098 19.7178 24.2864 20.5317 23.9554C21.3366 23.6165 22.1741 23.5201 23.0442 23.6664C23.9142 23.8126 24.7518 24.2394 25.5569 24.9467C25.6463 25.0253 25.7453 25.1201 25.8537 25.2313C25.9621 25.3424 26.0616 25.4456 26.1521 25.541L21.0949 31.2973L19.7531 30.1185L23.6197 25.7174L23.1467 27.0136C22.8235 26.7138 22.4823 26.525 22.1229 26.447C21.7713 26.36 21.4263 26.3739 21.0878 26.4886C20.7571 26.5943 20.4582 26.7993 20.191 27.1034C19.9238 27.4075 19.7551 27.7348 19.685 28.0853C19.6227 28.4268 19.6617 28.7702 19.8022 29.1155C19.9337 29.4529 20.1649 29.767 20.4959 30.0578L20.885 30.3997C21.2428 30.714 21.6143 30.9136 21.9995 30.9984C22.3925 31.0742 22.7824 31.0364 23.1691 30.8848C23.5469 30.7254 23.9048 30.4533 24.2427 30.0687C24.5571 29.7109 24.7751 29.3635 24.8967 29.0266C25.0173 28.6729 25.0803 28.2765 25.0856 27.8374L27.6599 27.7216C27.7381 28.4084 27.6561 29.0971 27.4138 29.7877C27.1627 30.4705 26.7306 31.1608 26.1176 31.8585Z" fill="#00FF0B"/>
<path d="M31.9684 14.4972C32.6117 14.1114 33.2734 13.8951 33.9534 13.8483C34.6273 13.7913 35.2746 13.9447 35.8953 14.3083C36.5262 14.6658 37.0989 15.2735 37.6133 16.1313L40.4607 20.8798L37.5503 22.625L34.9876 18.3514C34.6324 17.7591 34.2527 17.4037 33.8484 17.2851C33.4482 17.1502 33.0336 17.2114 32.6047 17.4686C32.2984 17.6523 32.0604 17.8922 31.8909 18.1882C31.7152 18.4741 31.6416 18.8028 31.6701 19.1745C31.6986 19.5462 31.8506 19.9618 32.1262 20.4213L34.5327 24.4346L31.6223 26.1798L26.6438 17.8775L29.4164 16.215L30.8309 18.5739L29.8815 18.2061C29.8367 17.4138 30.0013 16.7042 30.3752 16.0774C30.7429 15.4403 31.274 14.9136 31.9684 14.4972Z" fill="#00FF0B"/>
<path d="M47.2063 19.2864C46.3461 19.4774 45.5176 19.454 44.7208 19.2162C43.933 18.9642 43.2499 18.5244 42.6714 17.8966C42.0903 17.2572 41.6875 16.4318 41.463 15.4205C41.241 14.4209 41.2592 13.5142 41.5177 12.7006C41.7735 11.8754 42.2063 11.1877 42.816 10.6376C43.4373 10.085 44.1781 9.71315 45.0382 9.52216C45.8519 9.34148 46.5765 9.36356 47.2119 9.5884C47.8589 9.81065 48.4077 10.2499 48.8583 10.906C49.3089 11.5622 49.6568 12.4424 49.902 13.5467C50.1524 14.6743 50.2181 15.6293 50.0992 16.412C49.9802 17.1946 49.6805 17.8222 49.1999 18.2949C48.7194 18.7675 48.0549 19.098 47.2063 19.2864ZM47.3191 16.4987C47.6911 16.4161 48.003 16.2553 48.2549 16.0165C48.5184 15.775 48.7 15.4663 48.7995 15.0905C48.8964 14.7031 48.892 14.2711 48.7861 13.7945C48.6803 13.3179 48.5041 12.9362 48.2575 12.6495C48.0082 12.3511 47.7132 12.1483 47.3722 12.041C47.0429 11.9312 46.6923 11.9176 46.3203 12.0002C45.9367 12.0853 45.6131 12.2486 45.3496 12.4901C45.0977 12.729 44.922 13.0364 44.8225 13.4122C44.7204 13.7764 44.7223 14.1967 44.8281 14.6733C44.9339 15.1499 45.1128 15.5432 45.3645 15.8532C45.6138 16.1516 45.903 16.3557 46.2323 16.4656C46.5733 16.5728 46.9356 16.5839 47.3191 16.4987ZM49.9438 18.5139L49.5838 16.8923L48.9082 13.7674L48.0408 10.685L46.9142 5.61112L50.2271 4.87553L53.0997 17.8131L49.9438 18.5139Z" fill="#00FF0B"/>
<path d="M56.6796 17.516L58.8397 5.20147L61.7072 5.70448L65.3401 14.9733L63.8271 14.7079L70.257 7.20424L73.1245 7.70724L70.9996 20.0279L67.7978 19.4663L69.068 12.0186L69.6133 12.1143L64.809 17.6908L63.2608 17.4192L60.5358 10.522L61.2043 10.6392L59.8989 18.0807L56.6796 17.516Z" fill="#00FF0B"/>
<path d="M78.6521 24.7397L79.6049 23.2079L79.6435 22.7061L81.3981 19.8852C81.6811 19.4302 81.7565 18.9933 81.6244 18.5745C81.5086 18.152 81.1474 17.752 80.5407 17.3747C80.1464 17.1294 79.7061 16.9467 79.2199 16.8266C78.74 16.6964 78.2893 16.6544 77.8679 16.7008L78.1141 14.1406C78.7679 14.1266 79.4686 14.2399 80.2164 14.4806C80.9805 14.7175 81.6861 15.0372 82.3332 15.4397C83.6678 16.2698 84.5074 17.2197 84.8517 18.2892C85.2125 19.355 84.9872 20.54 84.176 21.8443L81.3365 26.4094L78.6521 24.7397ZM76.1406 23.3669C75.4833 22.9581 74.9964 22.501 74.6798 21.9956C74.3631 21.4901 74.203 20.9698 74.1993 20.4347C74.2057 19.9058 74.3567 19.4038 74.6523 18.9286C74.9667 18.423 75.3636 18.0668 75.8427 17.8601C76.3383 17.6495 76.9138 17.6148 77.5691 17.756C78.2308 17.8871 78.9863 18.2168 79.8356 18.745L81.7769 19.9525L80.843 21.454L79.296 20.4918C78.8309 20.2025 78.4552 20.0739 78.1687 20.1061C77.8924 20.1446 77.6756 20.2902 77.5184 20.543C77.3612 20.7957 77.3314 21.0577 77.4292 21.3288C77.527 21.6 77.7427 21.8393 78.0764 22.0469C78.3898 22.2418 78.7201 22.3421 79.0672 22.3476C79.4307 22.3494 79.7737 22.2262 80.0963 21.9781L79.8303 23.285C79.3265 23.7569 78.7609 24.0011 78.1337 24.0176C77.5228 24.0303 76.8584 23.8134 76.1406 23.3669Z" fill="#00FF0B"/>
<path d="M86.9897 29.3355L90.1084 26.7433L95.5961 27.2035L98.2323 30.2367L91.9511 29.8982L89.7632 29.5044L86.9897 29.3355ZM83.7904 28.3771L93.7932 19.6836L96.0193 22.245L86.0165 30.9385L83.7904 28.3771ZM88.4535 33.7425L89.3126 29.0677L92.6634 28.9479L91.1483 36.8431L88.4535 33.7425Z" fill="#00FF0B"/>
<path d="M93.3021 42.2745C92.838 41.2299 92.6277 40.2288 92.6714 39.2713C92.7307 38.3198 93.0064 37.4741 93.4986 36.7343C94.0064 36.0005 94.7011 35.4378 95.5825 35.0462C96.4639 34.6545 97.3392 34.5132 98.2084 34.6221C99.0934 34.737 99.8907 35.0799 100.6 35.6506C101.321 36.2165 101.887 36.9619 102.297 37.8868C102.684 38.7573 102.858 39.6315 102.818 40.5092C102.789 41.3821 102.526 42.183 102.029 42.912C101.532 43.6409 100.793 44.223 99.8141 44.6581C99.7053 44.7065 99.5777 44.7566 99.4314 44.8086C99.2851 44.8606 99.1497 44.9077 99.0252 44.95L95.914 37.9478L97.5462 37.2226L99.9249 42.5762L98.9458 41.6041C99.3532 41.4361 99.6676 41.2052 99.8889 40.9115C100.115 40.6286 100.247 40.3094 100.284 39.954C100.327 39.6094 100.266 39.2522 100.101 38.8822C99.9369 38.5122 99.7102 38.222 99.4213 38.0116C99.1372 37.8121 98.809 37.7039 98.4366 37.6869C98.0751 37.6651 97.6931 37.7437 97.2905 37.9225L96.8171 38.1329C96.3819 38.3262 96.0451 38.5801 95.8069 38.8944C95.5735 39.2196 95.4447 39.5895 95.4205 40.0042C95.4072 40.4141 95.5045 40.8529 95.7123 41.3208C95.9057 41.7561 96.13 42.0995 96.385 42.351C96.6558 42.6085 96.9895 42.8316 97.386 43.0203L96.4137 45.4067C95.7573 45.1902 95.1661 44.8275 94.6402 44.3184C94.1253 43.8045 93.6792 43.1232 93.3021 42.2745Z" fill="#00FF0B"/>
<path d="M95.9334 49.3362L105.482 47.7458L106.013 50.9347L103.23 51.3983L103.943 50.7906C104.707 50.9531 105.318 51.3222 105.776 51.8977C106.245 52.4714 106.555 53.2104 106.706 54.1147L103.693 54.6165C103.691 54.4599 103.681 54.3229 103.661 54.2054C103.655 54.0978 103.642 53.9793 103.62 53.8502C103.507 53.1689 103.227 52.6482 102.78 52.288C102.346 51.9258 101.712 51.8141 100.878 51.953L96.4909 52.6837L95.9334 49.3362Z" fill="#00FF0B"/>
<g filter="url(#filter0_i_28752_780)">
<path fill-rule="evenodd" clip-rule="evenodd" d="M56.1162 96.0001C76.3906 96.0001 92.8262 79.5644 92.8262 59.2901C92.8262 39.0157 76.3906 22.5801 56.1162 22.5801C35.8419 22.5801 19.4062 39.0157 19.4062 59.2901C19.4062 79.5644 35.8419 96.0001 56.1162 96.0001ZM48.3656 44.0992L49.6627 39.4668L42.2508 44.0992L33.3564 58.7378V73.9322H39.4713V63.1849L44.8449 54.1053V78.3794H54.4804L55.9628 75.5999H58.557L60.2247 78.3794H70.2308V54.1053L76.1603 63.1849V73.9322H82.4604V58.7378L73.7514 44.0992L64.4865 39.4668L66.7101 45.211L61.5218 46.5081L63.56 50.77L57.0746 60.5908L50.7745 50.77L52.6274 46.5081L48.3656 44.0992ZM53.3686 39.4668L57.0746 52.4376L60.2247 39.4668H53.3686ZM55.9628 64.8526L57.0746 64.2967L58.1864 64.8526V65.9644L57.0746 66.7056L56.1481 65.9644L55.9628 64.8526ZM55.9628 70.4116L57.0746 69.8557L58.1864 70.4116V71.7086L57.0746 72.2645L56.1481 71.7086L55.9628 70.4116Z" fill="#00FF0B"/>
</g>
<defs>
<filter id="filter0_i_28752_780" x="19.4062" y="22.5801" width="75.6525" height="76.3967" filterUnits="userSpaceOnUse" color-interpolation-filters="sRGB">
<feFlood flood-opacity="0" result="BackgroundImageFix"/>
<feBlend mode="normal" in="SourceGraphic" in2="BackgroundImageFix" result="shape"/>
<feColorMatrix in="SourceAlpha" type="matrix" values="0 0 0 0 0 0 0 0 0 0 0 0 0 0 0 0 0 0 127 0" result="hardAlpha"/>
<feOffset dx="2.2326" dy="4.4652"/>
<feGaussianBlur stdDeviation="1.4884"/>
<feComposite in2="hardAlpha" operator="arithmetic" k2="-1" k3="1"/>
<feColorMatrix type="matrix" values="0 0 0 0 0 0 0 0 0 0 0 0 0 0 0 0 0 0 0.25 0"/>
<feBlend mode="normal" in2="shape" result="effect1_innerShadow_28752_780"/>
</filter>
</defs>
</svg>
