<svg width="111" height="111" viewBox="0 0 111 111" fill="none" xmlns="http://www.w3.org/2000/svg">
<g filter="url(#filter0_i_28727_3)">
<path d="M111 55.5C111 40.873 105.226 26.8373 94.9328 16.4449C84.6399 6.05241 70.6604 0.143339 56.0341 0.00257349C41.4078 -0.138192 27.3172 5.50073 16.8262 15.6932C6.33513 25.8856 0.291811 39.8076 0.0102928 54.4318C-0.271225 69.0561 5.23182 83.2003 15.3228 93.7889C25.4138 104.378 39.277 110.555 53.8979 110.977C68.5187 111.399 82.7153 106.032 93.4005 96.0438C104.086 86.0552 110.396 72.2521 110.959 57.636L111 55.5L99.6959 41.0726L89.3961 55.5L80.475 46.6226V89.3576H33.8962V44.4026L21.6861 55.7527L12.8061 39.4076L35.0061 21.6476L76.035 21.6476L72.5294 25.5326L42.7761 25.5326L56.0341 31.0826L72.5294 25.5326L76.035 21.6476L99.6959 41.0726L111 55.5Z" fill="#92417E"/>
<path d="M58.4965 63.9676C58.1371 63.0162 57.7988 62.0859 57.4816 61.1767C57.1645 60.2464 56.8368 59.3056 56.4985 58.3542H46.5402L44.5422 63.9676H41.3391C42.1848 61.6419 42.9776 59.4959 43.7176 57.5296C44.4576 55.5422 45.1765 53.6604 45.8742 51.8844C46.5931 50.1084 47.3013 48.417 47.9991 46.8102C48.6968 45.1822 49.4262 43.5753 50.1873 41.9896H53.0099C53.7711 43.5753 54.5005 45.1822 55.1982 46.8102C55.8959 48.417 56.5936 50.1084 57.2913 51.8844C58.0102 53.6604 58.7396 55.5422 59.4796 57.5296C60.2196 59.4959 61.0125 61.6419 61.8582 63.9676H58.4965ZM55.6105 55.817C54.9339 53.9776 54.2573 52.2016 53.5808 50.489C52.9253 48.7553 52.2382 47.0956 51.5193 45.5099C50.7793 47.0956 50.0711 48.7553 49.3945 50.489C48.7391 52.2016 48.0836 53.9776 47.4282 55.817H55.6105ZM64.2078 41.9896H67.2841V63.9676H64.2078V41.9896Z" fill="#92417E"/>
</g>
<defs>
<filter id="filter0_i_28727_3" x="0" y="0" width="116.55" height="116.55" filterUnits="userSpaceOnUse" color-interpolation-filters="sRGB">
<feFlood flood-opacity="0" result="BackgroundImageFix"/>
<feBlend mode="normal" in="SourceGraphic" in2="BackgroundImageFix" result="shape"/>
<feColorMatrix in="SourceAlpha" type="matrix" values="0 0 0 0 0 0 0 0 0 0 0 0 0 0 0 0 0 0 127 0" result="hardAlpha"/>
<feOffset dx="17.76" dy="9.99"/>
<feGaussianBlur stdDeviation="2.775"/>
<feComposite in2="hardAlpha" operator="arithmetic" k2="-1" k3="1"/>
<feColorMatrix type="matrix" values="0 0 0 0 0 0 0 0 0 0 0 0 0 0 0 0 0 0 0.25 0"/>
<feBlend mode="normal" in2="shape" result="effect1_innerShadow_28727_3"/>
</filter>
</defs>
</svg>
