<svg width="12" height="17" viewBox="0 0 12 17" fill="none" xmlns="http://www.w3.org/2000/svg">
<path d="M10.4818 7.91865C10.4818 10.2859 7.72115 13.44 6.1955 14.3845C4.37927 13.3674 1.90918 10.2859 1.90918 7.91865C1.90918 5.55138 3.82823 3.63232 6.1955 3.63232C8.56278 3.63232 10.4818 5.55138 10.4818 7.91865Z" fill="#F7E334"/>
<path d="M3.63952 10.9592C3.6471 10.8842 3.71073 10.8265 3.78614 10.8291C4.63501 10.8581 9.26081 11.0564 8.66661 11.9147C8.05835 12.7933 7.65194 13.588 7.59551 14.2405C7.58861 14.3202 7.52416 14.3848 7.4442 14.3848H4.70215C4.63493 14.3848 4.57594 14.3361 4.55978 14.2708C3.94501 11.7886 3.46264 12.7107 3.63952 10.9592Z" fill="#F7E334"/>
<rect x="4.52539" y="14.8203" width="3.05128" height="0.435897" fill="black"/>
<rect x="4.6709" y="15.6921" width="2.76068" height="0.435897" fill="black"/>
<rect x="4.81543" y="16.5642" width="2.47009" height="0.435897" fill="black"/>
<rect x="2.51758" y="1.01343" width="2.04571" height="0.435897" transform="rotate(42.55 2.51758 1.01343)" fill="#F7E334"/>
<rect x="8.44824" y="2.54199" width="2.06744" height="0.435897" transform="rotate(-42.5471 8.44824 2.54199)" fill="#F7E334"/>
<rect x="10.3369" y="4.18652" width="1.55117" height="0.435897" transform="rotate(-31.2281 10.3369 4.18652)" fill="#F7E334"/>
<rect x="0.759766" y="3.39355" width="1.52964" height="0.435897" transform="rotate(31.23 0.759766 3.39355)" fill="#F7E334"/>
<rect x="5.97754" y="2.17969" width="2.17949" height="0.435897" transform="rotate(-90 5.97754 2.17969)" fill="#F7E334"/>
</svg>
