<svg width="81" height="66" viewBox="0 0 81 66" fill="none" xmlns="http://www.w3.org/2000/svg">
<g filter="url(#filter0_i_28752_771)">
<path d="M64.2082 42.1517C64.2082 35.9187 61.7605 29.935 57.392 25.4889C53.0236 21.0429 47.0839 18.4902 40.8519 18.3804C34.6198 18.2706 28.5939 20.6126 24.0716 24.9021C19.5494 29.1915 16.8924 35.0854 16.673 41.3145C16.4535 47.5436 18.689 53.6099 22.8982 58.207C27.1073 62.8041 32.9534 65.5644 39.1778 65.8935C45.4021 66.2226 51.5067 64.0943 56.1772 59.9668C60.8477 55.8392 63.7695 49.0825 64.2082 42.8649V42.1517L57.496 55.5705L54.936 54.9902H52.3356H50.1958V42.1517L52.3356 41.3145L56.1396 39.7742C54.9401 39.4947 54.2727 39.3344 52.0978 39.7742L50.1958 40.3007L44.4898 42.3895C46.0037 39.6341 47.1241 38.2566 50.1958 36.4494C51.2673 35.7567 52.8363 35.1871 56.1396 34.5437V31.2189L52.3356 34.0682L50.1958 35.0229L48.0412 35.7361C48.042 36.0079 48.119 36.1591 46.8525 36.4494C46.5304 36.4308 46.4211 36.4366 45.1882 36.2116C44.7531 36.2284 44.4941 36.2769 43.9995 36.4494L42.3352 37.4004C41.8984 37.4658 41.6423 37.5111 41.1465 37.6381C40.6275 37.7788 40.317 37.8238 39.4822 37.4004L38.5312 36.4494L37.818 35.7361C37.818 35.7361 37.1596 35.1431 36.3915 35.0229H34.7272C34.1046 34.8805 33.8763 34.7216 33.7762 34.3096L38.2935 34.5437C38.6905 34.676 38.8235 34.7899 39.0067 35.0229C39.2852 35.58 39.4414 35.8923 39.72 36.4494C40.003 36.2353 40.1925 36.1866 40.671 36.2116C41.1257 36.4177 41.2392 36.5902 41.3842 36.9249C41.7477 36.4025 42.0001 36.1376 42.573 35.7361C42.85 35.7145 43.0708 35.7174 43.524 35.7361H48.0412L50.1958 35.0229V29.551H27.357V54.9902L29.259 53.5637V41.3145C33.063 37.6381 32.8252 39.0647 34.7272 41.3145C35.7477 42.5216 38.4498 47.2206 39.1778 45.9594C41.3842 42.2655 43.0485 43.3405 44.475 44.7707L48.0412 47.3822V51.424V53.5637H29.259L27.357 54.9902H54.936L52.3356 57.1299H25.455V27.8867H52.3356V29.0755V34.0682L56.1396 31.2189L62.5588 37.159L59.4532 32.8795L60.4191 31.9285L58.9777 30.0265L57.789 31.453L58.2645 30.9443C58.7981 30.911 59.1015 30.9696 59.4532 31.2189C59.8776 31.5035 59.9229 31.7965 59.9287 32.3708L59.4532 32.8795L62.5588 37.159L56.1396 43.1027V39.7742L52.3356 41.3145V54.9902V57.1299L56.1772 58.207L64.2082 42.1517Z" fill="#D05656"/>
</g>
<path d="M13.2798 34.6127C13.1347 35.1601 12.8917 35.5968 12.5507 35.9225C12.2018 36.2462 11.758 36.447 11.2193 36.5251C10.6748 36.5932 10.0217 36.5264 9.25998 36.3246C8.49032 36.1207 7.8887 35.8595 7.45513 35.5409C7.01362 35.2201 6.72429 34.8378 6.58713 34.3939C6.45207 33.9421 6.46125 33.4265 6.61467 32.8473C6.77019 32.2601 7.04985 31.7653 7.45366 31.3628C7.85164 30.9502 8.33735 30.6713 8.91079 30.526C9.4784 30.3706 10.1034 30.3833 10.7858 30.5641C11.4681 30.7448 12.0214 31.0442 12.4457 31.4622C12.872 31.8724 13.1559 32.3551 13.2975 32.9106C13.4412 33.4581 13.4353 34.0255 13.2798 34.6127ZM14.4066 39.2544L5.6468 36.9342L6.21739 34.78L7.31237 35.07L9.43967 35.6462L11.6135 36.0946L15.0056 36.9931L14.4066 39.2544ZM11.3565 34.6127C11.4237 34.3588 11.4241 34.1169 11.3576 33.887C11.2933 33.6492 11.1618 33.4403 10.9632 33.2603C10.7667 33.0724 10.5058 32.9354 10.1805 32.8492C9.85518 32.7631 9.56065 32.753 9.29692 32.819C9.03529 32.8771 8.81765 32.9935 8.64398 33.1683C8.47242 33.3351 8.35302 33.5455 8.28576 33.7994C8.21851 34.0533 8.21707 34.2992 8.28145 34.537C8.34793 34.7669 8.47941 34.9758 8.67589 35.1637C8.87447 35.3436 9.13642 35.4767 9.46174 35.5629C9.78706 35.649 10.0805 35.6631 10.3422 35.605C10.6059 35.539 10.8235 35.4226 10.9951 35.2557C11.1688 35.081 11.2892 34.8666 11.3565 34.6127Z" fill="#F76868"/>
<path d="M11.5106 22.759C11.7937 22.3263 12.1391 21.9931 12.5468 21.7596C12.9477 21.5217 13.3954 21.4221 13.8897 21.4611C14.3886 21.4932 14.9265 21.6979 15.5035 22.0754L18.6977 24.1648L17.417 26.1225L14.5423 24.242C14.1439 23.9814 13.8015 23.8751 13.5151 23.9231C13.2262 23.9598 12.9875 24.1224 12.7988 24.4109C12.6639 24.617 12.5885 24.8373 12.5723 25.0719C12.5493 25.3021 12.6024 25.5281 12.7319 25.7501C12.8613 25.9721 13.0806 26.1842 13.3897 26.3864L16.0892 28.1523L14.8086 30.11L7.16331 25.1088L8.44393 23.1511L12.0914 25.5372L11.3312 25.6872C11.0652 25.2092 10.9539 24.7195 10.9974 24.2183C11.034 23.7125 11.205 23.2261 11.5106 22.759Z" fill="#F76868"/>
<path d="M22.5256 21.0522C21.9578 21.5119 21.3609 21.8052 20.7348 21.932C20.1087 22.0588 19.5054 22.0246 18.9248 21.8293C18.3454 21.6225 17.8439 21.2576 17.4203 20.7345C16.9967 20.2115 16.7466 19.6483 16.6699 19.0449C16.5996 18.4364 16.6942 17.8423 16.9535 17.2626C17.2077 16.6765 17.6186 16.1536 18.1864 15.6939C18.7541 15.2341 19.351 14.9409 19.9771 14.8141C20.6044 14.6757 21.2052 14.7068 21.7794 14.9072C22.3537 15.1076 22.8526 15.4693 23.2761 15.9924C23.6997 16.5155 23.9524 17.0819 24.0343 17.6916C24.1109 18.2949 24.019 18.8922 23.7584 19.4834C23.5042 20.0695 23.0933 20.5924 22.5256 21.0522ZM21.3555 19.6074C21.566 19.4369 21.7123 19.2392 21.7943 19.0144C21.8826 18.7844 21.8998 18.5382 21.8456 18.2757C21.7864 18.0069 21.6508 17.7417 21.439 17.4801C21.2272 17.2186 21.0012 17.0373 20.7608 16.9361C20.5153 16.8286 20.2709 16.7942 20.0276 16.8328C19.7906 16.8663 19.5669 16.9682 19.3564 17.1387C19.1523 17.304 19.006 17.5017 18.9177 17.7317C18.8357 17.9565 18.8186 18.2027 18.8663 18.4704C18.9153 18.7264 19.0456 18.9853 19.2574 19.2468C19.4692 19.5083 19.7004 19.696 19.9511 19.8099C20.203 19.9123 20.4474 19.9467 20.6843 19.9132C20.9277 19.8746 21.1514 19.7727 21.3555 19.6074Z" fill="#F76868"/>
<path d="M29.6011 16.882C28.8261 17.2398 28.1347 17.3285 27.527 17.148C26.9158 16.96 26.4314 16.4785 26.0735 15.7034L23.6738 10.5054L25.7977 9.52485L28.1872 14.7005C28.2869 14.9167 28.4257 15.0605 28.6034 15.1322C28.7777 15.1964 28.958 15.1855 29.1443 15.0994C29.3977 14.9825 29.5846 14.8193 29.7049 14.6101L30.9167 15.8543C30.7929 16.0561 30.6126 16.2433 30.3759 16.4159C30.1426 16.5959 29.8843 16.7513 29.6011 16.882ZM24.2512 14.0766L23.5183 12.4893L27.9115 10.4611L28.6444 12.0484L24.2512 14.0766Z" fill="#F76868"/>
<path d="M35.0883 15.3566C34.3699 15.4892 33.7054 15.4616 33.0948 15.2738C32.4842 15.086 31.9705 14.7676 31.5538 14.3187C31.1437 13.8602 30.8775 13.3 30.7553 12.6381C30.6332 11.9762 30.6826 11.3619 30.9035 10.7953C31.1325 10.2272 31.4994 9.75047 32.0043 9.36515C32.5076 8.97177 33.1184 8.70878 33.8368 8.57618C34.5552 8.44359 35.2197 8.47119 35.8303 8.65898C36.4475 8.83721 36.9604 9.15153 37.3691 9.60196C37.7778 10.0524 38.0432 10.6086 38.1653 11.2704C38.2875 11.9323 38.2389 12.5506 38.0194 13.1254C37.7985 13.692 37.4323 14.1727 36.9209 14.5676C36.4176 14.961 35.8067 15.224 35.0883 15.3566ZM34.7509 13.5283C35.0172 13.4791 35.2401 13.3754 35.4196 13.2171C35.6071 13.0573 35.7398 12.8491 35.8177 12.5927C35.8941 12.3282 35.9017 12.0305 35.8406 11.6995C35.7795 11.3686 35.6676 11.1013 35.5048 10.8976C35.3405 10.6859 35.1423 10.5388 34.9101 10.4565C34.6859 10.3726 34.4407 10.3553 34.1743 10.4045C33.916 10.4521 33.6931 10.5559 33.5056 10.7157C33.3261 10.874 33.1934 11.0822 33.1075 11.3401C33.0281 11.5884 33.019 11.8781 33.08 12.209C33.1411 12.54 33.2545 12.8154 33.4203 13.0352C33.5927 13.2454 33.7909 13.3925 34.0151 13.4763C34.2473 13.5586 34.4926 13.576 34.7509 13.5283Z" fill="#F76868"/>
<path d="M42.9305 15.1559C42.2297 15.0711 41.5637 14.9037 40.9325 14.6538C40.3104 14.3966 39.8124 14.1049 39.4385 13.7785L40.4488 12.09C40.8023 12.3808 41.2177 12.6378 41.695 12.8609C42.1815 13.0768 42.6733 13.2148 43.1704 13.275C43.5045 13.3154 43.7769 13.3194 43.9875 13.287C44.1991 13.2464 44.3556 13.1827 44.4571 13.0957C44.5677 13.0016 44.6314 12.8853 44.6481 12.7468C44.6718 12.5512 44.6009 12.3855 44.4354 12.2498C44.2699 12.114 44.049 11.9922 43.7727 11.8844C43.4963 11.7765 43.1874 11.6648 42.8459 11.549C42.5125 11.4343 42.1775 11.2987 41.8409 11.1422C41.5125 10.9867 41.2165 10.8021 40.9529 10.5883C40.6904 10.3664 40.4872 10.0979 40.3434 9.7829C40.2006 9.45971 40.1568 9.06995 40.212 8.61361C40.2741 8.10023 40.4688 7.65251 40.7962 7.27043C41.1316 6.88933 41.5958 6.60648 42.1886 6.42188C42.7814 6.23727 43.4975 6.19573 44.3369 6.29725C44.8991 6.36526 45.4413 6.49698 45.9633 6.69241C46.4945 6.88068 46.9572 7.12268 47.3514 7.4184L46.3884 9.12503C46.0076 8.85573 45.6239 8.64397 45.2375 8.48973C44.852 8.32735 44.4718 8.22349 44.0969 8.17816C43.7628 8.13774 43.4895 8.14189 43.2769 8.19059C43.0653 8.23114 42.9078 8.30303 42.8043 8.40627C42.7009 8.50952 42.6403 8.63448 42.6226 8.78116C42.5999 8.96858 42.6672 9.12968 42.8246 9.26447C42.991 9.39208 43.2124 9.50981 43.4888 9.61765C43.7742 9.71832 44.0837 9.82603 44.417 9.94077C44.7586 10.0565 45.0936 10.1921 45.422 10.3476C45.7596 10.4959 46.0597 10.681 46.3222 10.9029C46.5857 11.1167 46.7848 11.3847 46.9195 11.7069C47.0633 12.0219 47.1081 12.4036 47.0539 12.8517C46.9937 13.3488 46.7954 13.792 46.459 14.1812C46.1316 14.5633 45.6716 14.8466 45.0787 15.0313C44.4941 15.2168 43.778 15.2584 42.9305 15.1559Z" fill="#F76868"/>
<path d="M55.6665 11.7642C56.1357 11.9815 56.5154 12.275 56.8056 12.6446C57.0992 13.0067 57.2626 13.4352 57.2958 13.93C57.3364 14.4282 57.2118 14.9901 56.9221 15.6158L55.318 19.0792L53.1953 18.0961L54.6389 14.979C54.839 14.547 54.8945 14.1928 54.8054 13.9164C54.7272 13.6359 54.5318 13.4233 54.2189 13.2784C53.9955 13.1749 53.7665 13.1322 53.532 13.1502C53.301 13.1608 53.085 13.2462 52.8841 13.4065C52.6833 13.5667 52.5052 13.8144 52.35 14.1496L50.9943 17.0767L48.8716 16.0936L52.7109 7.80376L54.8337 8.78688L53.002 12.7419L52.7432 12.0115C53.1777 11.679 53.646 11.4978 54.1482 11.4681C54.6539 11.4309 55.16 11.5296 55.6665 11.7642Z" fill="#F76868"/>
<path d="M59.3463 22.6255L60.189 21.711L60.2798 21.3762L61.8317 19.6921C62.082 19.4204 62.1894 19.1343 62.1539 18.8337C62.13 18.5326 61.9369 18.2152 61.5748 17.8814C61.3394 17.6645 61.0648 17.484 60.751 17.34C60.4428 17.19 60.143 17.1035 59.8516 17.0805L60.3485 15.3785C60.793 15.4533 61.2529 15.6204 61.7283 15.8798C62.2152 16.1387 62.6518 16.4462 63.0381 16.8022C63.8349 17.5364 64.2809 18.2879 64.3762 19.0566C64.4831 19.8248 64.1778 20.5982 63.4603 21.3769L60.9489 24.1023L59.3463 22.6255ZM57.8225 21.372C57.4301 21.0104 57.1593 20.6381 57.0101 20.255C56.8608 19.8719 56.8194 19.4989 56.8859 19.1361C56.9585 18.7787 57.1254 18.4582 57.3869 18.1745C57.665 17.8727 57.9796 17.6827 58.3308 17.6045C58.6935 17.5257 59.0877 17.5764 59.5133 17.7566C59.9445 17.9306 60.4136 18.2513 60.9206 18.7185L62.0796 19.7865L61.2536 20.6829L60.33 19.8318C60.0523 19.576 59.8145 19.4405 59.6163 19.4253C59.4242 19.4157 59.2587 19.4864 59.1196 19.6373C58.9806 19.7882 58.9267 19.9618 58.9579 20.158C58.9892 20.3542 59.1044 20.5441 59.3036 20.7277C59.4907 20.9001 59.7014 21.0106 59.9358 21.0591C60.1817 21.1071 60.4299 21.068 60.6803 20.9416L60.3317 21.7923C59.9297 22.0469 59.5152 22.1393 59.0883 22.0696C58.673 21.9995 58.251 21.7669 57.8225 21.372Z" fill="#F76868"/>
<path d="M62.5571 26.2411L68.1432 22.5902L69.3624 24.4557L67.734 25.5199L68.0159 24.9385C68.5428 24.8295 69.0306 24.8932 69.4792 25.1295C69.9347 25.3613 70.3353 25.7417 70.6811 26.2708L68.9187 27.4226C68.8741 27.3243 68.8293 27.2408 68.7844 27.1721C68.7509 27.1058 68.7094 27.0348 68.66 26.9593C68.3995 26.5607 68.0785 26.3097 67.697 26.206C67.3224 26.0979 66.8911 26.2032 66.4033 26.522L63.837 28.1993L62.5571 26.2411Z" fill="#F76868"/>
<path d="M66.329 33.7772C66.0745 33.0315 65.9916 32.3312 66.0804 31.6765C66.1796 31.0268 66.4209 30.4631 66.8042 29.9854C67.198 29.5127 67.7095 29.169 68.3387 28.9543C68.9679 28.7395 69.5776 28.6962 70.1678 28.8244C70.7684 28.9577 71.2947 29.242 71.7469 29.6775C72.2068 30.1103 72.5495 30.6568 72.7749 31.3171C72.987 31.9386 73.0523 32.5494 72.971 33.1496C72.8974 33.7471 72.6676 34.2809 72.2816 34.7509C71.8956 35.2209 71.353 35.5752 70.6538 35.8138C70.5762 35.8403 70.4855 35.8669 70.3819 35.8936C70.2782 35.9203 70.1823 35.9444 70.0942 35.9658L68.3881 30.9669L69.5534 30.5692L70.8578 34.3912L70.2452 33.6636C70.5353 33.5732 70.7653 33.434 70.9353 33.2459C71.1079 33.0656 71.218 32.8545 71.2656 32.6128C71.3159 32.3788 71.2959 32.1298 71.2058 31.8656C71.1156 31.6015 70.9778 31.3884 70.7924 31.2262C70.6096 31.0717 70.3908 30.9772 70.1362 30.9427C69.8893 30.9056 69.6222 30.936 69.3348 31.0341L68.9969 31.1494C68.6861 31.2555 68.4393 31.4091 68.2565 31.6103C68.0763 31.8192 67.9651 32.0653 67.923 32.3486C67.8887 32.6291 67.9285 32.9365 68.0425 33.2705C68.1486 33.5812 68.2814 33.8308 68.4411 34.0191C68.6112 34.2126 68.8266 34.3863 69.0873 34.5401L68.2731 36.119C67.8357 35.93 67.4521 35.6446 67.1223 35.2628C66.8003 34.8784 66.5358 34.3832 66.329 33.7772Z" fill="#F76868"/>
<defs>
<filter id="filter0_i_28752_771" x="16.6582" y="18.3767" width="49.0889" height="49.6021" filterUnits="userSpaceOnUse" color-interpolation-filters="sRGB">
<feFlood flood-opacity="0" result="BackgroundImageFix"/>
<feBlend mode="normal" in="SourceGraphic" in2="BackgroundImageFix" result="shape"/>
<feColorMatrix in="SourceAlpha" type="matrix" values="0 0 0 0 0 0 0 0 0 0 0 0 0 0 0 0 0 0 127 0" result="hardAlpha"/>
<feOffset dx="1.53905" dy="3.07809"/>
<feGaussianBlur stdDeviation="1.02603"/>
<feComposite in2="hardAlpha" operator="arithmetic" k2="-1" k3="1"/>
<feColorMatrix type="matrix" values="0 0 0 0 0 0 0 0 0 0 0 0 0 0 0 0 0 0 0.25 0"/>
<feBlend mode="normal" in2="shape" result="effect1_innerShadow_28752_771"/>
</filter>
</defs>
</svg>
