<svg width="72" height="67" viewBox="0 0 72 67" fill="none" xmlns="http://www.w3.org/2000/svg">
<g filter="url(#filter0_i_28796_88)">
<path d="M58.4339 43.0177C58.4339 36.784 55.9859 30.7997 51.617 26.3532C47.2481 21.9067 41.3078 19.3537 35.0751 19.2439C28.8424 19.1342 22.8159 21.4764 18.2931 25.7663C13.7704 30.0562 11.1132 35.9506 10.8937 42.1804C10.6742 48.4102 12.9099 54.4771 17.1195 59.0746C21.3291 63.6722 27.1758 66.4328 33.4008 66.762C39.6258 67.0912 45.731 64.9626 50.402 60.8346C55.073 56.7066 57.9951 49.9492 58.4339 43.731V43.0177L51.7209 56.4379L49.1606 55.8575H47.2733V42.1804L49.1606 39.9266V38.7378L43.4541 45.3991L40.6008 46.6096L41.7896 43.731L51.617 32.7934L49.1607 34.22L47.2733 36.3637L42.2652 36.6015C42.2659 36.8732 42.343 37.0244 41.0763 37.3148C40.7542 37.2962 40.6449 37.302 39.4119 37.077C38.9767 37.0938 38.7177 37.1423 38.223 37.3148L36.5586 38.2659C36.1217 38.3313 35.8656 38.3766 35.3697 38.5037C34.8507 38.6444 34.5402 38.6893 33.7053 38.2659L32.7542 37.3148L32.0409 36.6015C32.0409 36.6015 31.3825 36.0084 30.6142 35.8882H28.9498C28.3272 35.7458 28.0988 35.5868 27.9987 35.1748L32.5164 35.4089C32.9135 35.5413 33.0465 35.6551 33.2297 35.8882C33.5083 36.4453 33.6645 36.7577 33.9431 37.3148C34.2261 37.1007 34.4157 37.052 34.8942 37.077C35.349 37.2831 35.4625 37.4556 35.6075 37.7904C35.971 37.2679 36.2234 37.003 36.7964 36.6015C37.0734 36.5799 37.2943 36.5827 37.7475 36.6015H42.2652L47.2733 36.3637L47.2731 30.4193H21.5936V55.8575L23.481 54.4309V42.1804C25.3832 38.5037 27.3375 40.5591 29.1876 42.1804C30.3764 43.2223 32.6728 47.1361 33.4008 45.8747C35.6075 42.1804 37.2719 43.2555 38.6986 44.6858L45.594 50.3924V53.2457V54.4309H23.481L21.5936 55.8575H49.1606V57.9975H19.6766V28.7512H36.5586H49.1606L49.1607 34.22L51.617 32.7934L52.7273 33.7445L53.2028 34.22L53.6784 33.7445L52.0139 32.3178L52.4895 31.8091C53.0232 31.7759 53.3266 31.8344 53.6784 32.0838C54.1028 32.3684 54.1481 32.6614 54.1539 33.2358L53.6784 33.7445L53.2028 34.22L49.1606 38.7378V41.1155V54.4309V57.9975L50.402 59.0746L58.4339 43.0177Z" fill="#CCC867"/>
</g>
<path d="M9.00844 34.4253L2.81465 31.9836L3.93086 29.1522C4.1541 28.5859 4.43738 28.1353 4.7807 27.8004C5.12634 27.4595 5.51736 27.2456 5.95376 27.1587C6.38426 27.0694 6.83546 27.1178 7.30737 27.3038C7.77338 27.4875 8.13327 27.7589 8.38703 28.1179C8.6408 28.4769 8.78067 28.9001 8.80666 29.3875C8.82907 29.8666 8.72865 30.3893 8.50541 30.9556L7.7729 32.8137L7.31891 31.7351L9.69909 32.6734L9.00844 34.4253ZM7.50472 31.8083L6.39257 32.2695L7.08322 30.5176C7.2274 30.1519 7.25474 29.8491 7.16523 29.6094C7.07805 29.3637 6.89289 29.1851 6.60974 29.0735C6.3207 28.9595 6.0605 28.9626 5.82914 29.0827C5.60011 29.1968 5.41351 29.4368 5.26933 29.8025L4.57868 31.5545L4.08044 30.4584L7.50472 31.8083Z" fill="#CCC867"/>
<path d="M10.0492 21.7387C10.2962 21.4247 10.5844 21.1916 10.9139 21.0394C11.2384 20.8833 11.5896 20.8368 11.9674 20.9001C12.3492 20.9584 12.7493 21.1522 13.1679 21.4815L15.4852 23.3045L14.3679 24.7247L12.2824 23.0841C11.9933 22.8567 11.737 22.7518 11.5133 22.7695C11.2886 22.7783 11.0939 22.8873 10.9292 23.0966C10.8116 23.2461 10.7387 23.4106 10.7105 23.5901C10.6772 23.7656 10.7029 23.9432 10.7876 24.1227C10.8722 24.3022 11.0267 24.4802 11.251 24.6566L13.2094 26.1973L12.0921 27.6176L6.54558 23.2542L7.66289 21.8339L10.3091 23.9157L9.71396 23.98C9.54147 23.5942 9.48882 23.2099 9.556 22.8271C9.6182 22.4404 9.78259 22.0776 10.0492 21.7387Z" fill="#CCC867"/>
<path d="M18.7818 20.7861C18.3267 21.1198 17.8552 21.3239 17.3674 21.3984C16.8796 21.473 16.4153 21.4242 15.9746 21.252C15.5352 21.0709 15.1619 20.7707 14.8545 20.3513C14.5471 19.932 14.375 19.4881 14.3383 19.0198C14.3067 18.5477 14.4017 18.0928 14.6233 17.6551C14.8412 17.2124 15.1777 16.8242 15.6329 16.4905C16.088 16.1569 16.5595 15.9528 17.0473 15.8782C17.5365 15.7948 17.9988 15.8411 18.4345 16.0171C18.8701 16.193 19.2416 16.4907 19.549 16.91C19.8563 17.3293 20.0303 17.7758 20.0708 18.2492C20.1075 18.7176 20.0144 19.175 19.7913 19.6216C19.5734 20.0643 19.2369 20.4525 18.7818 20.7861ZM17.9327 19.6279C18.1015 19.5042 18.2217 19.3571 18.2933 19.1867C18.37 19.0125 18.3924 18.8231 18.3603 18.6186C18.3246 18.409 18.2299 18.1993 18.0762 17.9896C17.9225 17.78 17.7548 17.6317 17.5731 17.5447C17.3877 17.4526 17.2004 17.417 17.0112 17.4377C16.8271 17.4547 16.6507 17.5251 16.482 17.6488C16.3183 17.7688 16.1981 17.9158 16.1214 18.09C16.0498 18.2604 16.0274 18.4498 16.0543 18.6581C16.0826 18.8575 16.1735 19.062 16.3272 19.2717C16.4809 19.4814 16.6524 19.6348 16.8415 19.732C17.0321 19.8203 17.2194 19.856 17.4035 19.8389C17.5927 19.8182 17.7691 19.7478 17.9327 19.6279Z" fill="#CCC867"/>
<path d="M24.8312 17.4334C24.2276 17.6988 23.6924 17.7576 23.2256 17.6096C22.7562 17.4559 22.3888 17.0772 22.1233 16.4736L20.3428 12.4252L21.997 11.6977L23.7698 15.7286C23.8438 15.897 23.949 16.01 24.0852 16.0679C24.2189 16.1199 24.3583 16.114 24.5034 16.0502C24.7008 15.9634 24.8474 15.84 24.9433 15.6801L25.8618 16.6581C25.7633 16.8122 25.6214 16.9542 25.4362 17.0842C25.2534 17.22 25.0518 17.3364 24.8312 17.4334ZM20.7386 15.1915L20.1949 13.9552L23.6165 12.4505L24.1602 13.6867L20.7386 15.1915Z" fill="#CCC867"/>
<path d="M29.2345 16.1796C28.6807 16.288 28.1672 16.2723 27.694 16.1324C27.2208 15.9924 26.8213 15.7508 26.4957 15.4075C26.175 15.0568 25.9647 14.6263 25.8648 14.1161C25.7649 13.6058 25.7979 13.1309 25.9638 12.6914C26.136 12.2507 26.4154 11.8793 26.8021 11.5775C27.1876 11.2694 27.6572 11.0611 28.211 10.9527C28.7648 10.8443 29.2784 10.86 29.7516 11C30.2298 11.1325 30.6286 11.371 30.9481 11.7155C31.2675 12.06 31.4772 12.4873 31.5771 12.9976C31.677 13.5078 31.6446 13.9858 31.4799 14.4316C31.314 14.8711 31.0352 15.2455 30.6435 15.5548C30.258 15.8629 29.7883 16.0712 29.2345 16.1796ZM28.9585 14.7702C29.1639 14.73 29.3352 14.648 29.4725 14.5242C29.616 14.3992 29.7168 14.2373 29.7748 14.0386C29.8315 13.8336 29.835 13.6036 29.785 13.3485C29.735 13.0934 29.6463 12.8878 29.5189 12.7319C29.3902 12.5697 29.2359 12.4578 29.0558 12.3961C28.882 12.3332 28.6924 12.3219 28.487 12.3621C28.2879 12.4011 28.1166 12.4831 27.9731 12.6081C27.8358 12.7319 27.735 12.8938 27.6708 13.0937C27.6116 13.2862 27.607 13.5101 27.6569 13.7652C27.7069 14.0203 27.7968 14.2321 27.9267 14.4005C28.0616 14.5614 28.2159 14.6733 28.3898 14.7362C28.5698 14.7979 28.7594 14.8092 28.9585 14.7702Z" fill="#CCC867"/>
<path d="M33.8144 15.3231L34.6702 8.72063L36.2077 8.91994L38.361 13.7642L37.5498 13.659L40.7917 9.51417L42.3291 9.71347L41.4921 16.3184L39.7754 16.0958L40.2738 12.1036L40.5662 12.1415L38.1432 15.2225L37.3131 15.1149L35.6992 11.5106L36.0576 11.5571L35.5404 15.5468L33.8144 15.3231Z" fill="#CCC867"/>
<path d="M46.3319 18.5148L46.7481 17.6491L46.7397 17.3812L47.5063 15.7869C47.6299 15.5297 47.6447 15.2941 47.5506 15.08C47.465 14.863 47.2508 14.6721 46.9079 14.5072C46.6851 14.4001 46.4415 14.3287 46.1772 14.2931C45.9156 14.2517 45.6746 14.2555 45.4542 14.3042L45.4372 12.9347C45.7825 12.8897 46.16 12.9094 46.5697 12.9938C46.9879 13.0752 47.3798 13.2039 47.7455 13.3797C48.4998 13.7424 48.9989 14.1969 49.2428 14.7433C49.4951 15.2868 49.444 15.9271 49.0896 16.6642L47.8491 19.2443L46.3319 18.5148ZM44.9233 17.9326C44.5519 17.754 44.2678 17.54 44.0711 17.2907C43.8744 17.0413 43.7597 16.7751 43.7269 16.492C43.6999 16.2117 43.7509 15.9372 43.8801 15.6686C44.0175 15.3829 44.207 15.1715 44.4488 15.0345C44.699 14.8945 45.0017 14.843 45.3568 14.88C45.7146 14.9114 46.1335 15.0424 46.6135 15.2732L47.7107 15.8007L47.3027 16.6493L46.4284 16.229C46.1655 16.1026 45.9592 16.0561 45.8094 16.0897C45.6653 16.1259 45.5589 16.2155 45.4902 16.3583C45.4216 16.5012 45.4209 16.6416 45.4883 16.7795C45.5556 16.9174 45.6836 17.0317 45.8722 17.1224C46.0493 17.2076 46.2299 17.2416 46.414 17.2246C46.6065 17.2046 46.781 17.1197 46.9375 16.9698L46.8719 17.677C46.6323 17.9558 46.347 18.1176 46.0159 18.1624C45.6932 18.2043 45.329 18.1277 44.9233 17.9326Z" fill="#CCC867"/>
<path d="M51.5083 20.7702L52.9711 19.1816L55.9 19.0366L57.5058 20.4512L54.1667 20.7165L52.9841 20.6633L51.5083 20.7702ZM49.752 20.4906L54.4169 15.1951L55.7729 16.3896L51.108 21.6851L49.752 20.4906ZM52.5924 22.9928L52.7154 20.4647L54.4754 20.1646L54.2339 24.4388L52.5924 22.9928Z" fill="#CCC867"/>
<path d="M56.5221 28.0506C56.1876 27.542 55.9904 27.0342 55.9303 26.5274C55.8789 26.0223 55.9505 25.5541 56.1449 25.1227C56.3481 24.6931 56.6643 24.3373 57.0934 24.0551C57.5225 23.7729 57.9702 23.6227 58.4363 23.6046C58.9113 23.5883 59.3599 23.6993 59.7822 23.9376C60.2098 24.1724 60.5717 24.515 60.8678 24.9653C61.1465 25.3892 61.3134 25.8334 61.3685 26.298C61.4289 26.7592 61.3601 27.2028 61.1622 27.6289C60.9643 28.055 60.6269 28.4248 60.1501 28.7383C60.0971 28.7731 60.0345 28.8106 59.9621 28.8505C59.8898 28.8905 59.8227 28.927 59.7609 28.9601L57.5192 25.5509L58.3139 25.0283L60.0279 27.6349L59.4291 27.209C59.6286 27.0854 59.7738 26.9369 59.8645 26.7633C59.9588 26.5951 60.0004 26.416 59.9893 26.226C59.9817 26.0413 59.9186 25.8589 59.8002 25.6787C59.6817 25.4986 59.5375 25.3658 59.3675 25.2803C59.2009 25.2001 59.0191 25.1717 58.8219 25.1951C58.6301 25.215 58.4362 25.2893 58.2402 25.4182L58.0097 25.5698C57.7978 25.7091 57.6429 25.8717 57.545 26.0575C57.4506 26.2486 57.415 26.4541 57.4382 26.6741C57.4667 26.8906 57.5559 27.1127 57.7057 27.3405C57.8451 27.5525 57.9926 27.7134 58.1485 27.8235C58.3131 27.9353 58.5077 28.0236 58.7324 28.0883L58.4285 29.4265C58.0648 29.3696 57.7228 29.2303 57.4023 29.0084C57.0872 28.7831 56.7938 28.4638 56.5221 28.0506Z" fill="#CCC867"/>
<path d="M58.4314 31.4946L63.2502 29.6634L63.8617 31.2726L62.457 31.8065L62.7658 31.4144C63.1814 31.4192 63.539 31.5479 63.8384 31.8004C64.1438 32.0506 64.3832 32.4039 64.5566 32.8603L63.0363 33.4381C63.0189 33.3565 62.9989 33.2861 62.9764 33.2268C62.962 33.1712 62.9425 33.1108 62.9177 33.0456C62.7871 32.7019 62.5864 32.4593 62.3156 32.318C62.0508 32.1745 61.708 32.1827 61.2871 32.3426L59.0734 33.1839L58.4314 31.4946Z" fill="#CCC867"/>
<defs>
<filter id="filter0_i_28796_88" x="10.8789" y="19.2402" width="48.2377" height="48.4656" filterUnits="userSpaceOnUse" color-interpolation-filters="sRGB">
<feFlood flood-opacity="0" result="BackgroundImageFix"/>
<feBlend mode="normal" in="SourceGraphic" in2="BackgroundImageFix" result="shape"/>
<feColorMatrix in="SourceAlpha" type="matrix" values="0 0 0 0 0 0 0 0 0 0 0 0 0 0 0 0 0 0 127 0" result="hardAlpha"/>
<feOffset dx="0.68297" dy="1.36594"/>
<feGaussianBlur stdDeviation="0.455313"/>
<feComposite in2="hardAlpha" operator="arithmetic" k2="-1" k3="1"/>
<feColorMatrix type="matrix" values="0 0 0 0 0 0 0 0 0 0 0 0 0 0 0 0 0 0 0.25 0"/>
<feBlend mode="normal" in2="shape" result="effect1_innerShadow_28796_88"/>
</filter>
</defs>
</svg>
