<svg width="56" height="69" viewBox="0 0 56 69" fill="none" xmlns="http://www.w3.org/2000/svg">
<g filter="url(#filter0_d_28611_14)">
<g filter="url(#filter1_i_28611_14)">
<path d="M22.9273 18.6479C28.9004 10.4742 39.589 -1.94363 51.0637 0.257195C55.4647 10.3168 43.0472 31.5371 39.7463 31.5371C39.8093 35.4966 40.7507 37.665 39.7463 39.8679C37.9169 42.0241 36.614 43.1416 33.6161 44.8978L30.3152 37.1958H25.7568L19.9408 32.7946L19.3122 28.079L10.1953 28.8649C10.1953 28.8649 12.0815 22.2631 14.1249 20.3769C16.1684 18.4907 22.9273 18.6479 22.9273 18.6479Z" fill="white"/>
</g>
<path d="M43.2031 14.461C43.2031 16.5444 41.5141 18.2334 39.4307 18.2334C37.3472 18.2334 35.6582 16.5444 35.6582 14.461C35.6582 12.3775 37.3472 10.6885 39.4307 10.6885C41.5141 10.6885 43.2031 12.3775 43.2031 14.461ZM35.9826 14.461C35.9826 16.3653 37.5263 17.909 39.4307 17.909C41.335 17.909 42.8787 16.3653 42.8787 14.461C42.8787 12.5567 41.335 11.0129 39.4307 11.0129C37.5263 11.0129 35.9826 12.5567 35.9826 14.461Z" fill="black"/>
<circle cx="39.4319" cy="14.461" r="2.82934" fill="#6F9CF4"/>
<g filter="url(#filter2_d_28611_14)">
<path d="M17.7717 34.298C18.1374 34.816 18.2435 35.152 18.1841 35.8468C17.7023 36.5882 17.4496 36.9888 17.2721 37.4793L17.569 42.1856L22.3053 41.2567C22.9706 40.8612 23.275 40.5774 23.638 39.9127C24.5463 39.5471 24.8613 39.6111 25.3637 39.8038C22.5408 45.043 19.0733 47.1867 12.103 49.3027C12.0385 42.314 13.5458 39.1606 17.7717 34.298Z" fill="#FFB802"/>
<path d="M17.1584 37.486C17.3094 37.6999 16.9185 39.6081 17.496 39.9847C17.297 40.2909 17.4267 40.3821 17.3534 40.5847L17.4651 42.3491L19.3502 41.9152C19.625 41.7519 20.1317 41.9735 20.2816 41.699C20.6566 41.548 22.2479 41.4823 22.4553 41.5618C21.2896 43.7254 18.0972 44.5934 15.2188 45.4672C15.1922 42.5812 15.4133 39.494 17.1584 37.486Z" fill="#FAFF02"/>
</g>
</g>
<defs>
<filter id="filter0_d_28611_14" x="6.19531" y="0" width="49.8018" height="57.3027" filterUnits="userSpaceOnUse" color-interpolation-filters="sRGB">
<feFlood flood-opacity="0" result="BackgroundImageFix"/>
<feColorMatrix in="SourceAlpha" type="matrix" values="0 0 0 0 0 0 0 0 0 0 0 0 0 0 0 0 0 0 127 0" result="hardAlpha"/>
<feOffset dy="4"/>
<feGaussianBlur stdDeviation="2"/>
<feComposite in2="hardAlpha" operator="out"/>
<feColorMatrix type="matrix" values="0 0 0 0 0 0 0 0 0 0 0 0 0 0 0 0 0 0 0.25 0"/>
<feBlend mode="normal" in2="BackgroundImageFix" result="effect1_dropShadow_28611_14"/>
<feBlend mode="normal" in="SourceGraphic" in2="effect1_dropShadow_28611_14" result="shape"/>
</filter>
<filter id="filter1_i_28611_14" x="10.1953" y="0" width="43.8018" height="48.8978" filterUnits="userSpaceOnUse" color-interpolation-filters="sRGB">
<feFlood flood-opacity="0" result="BackgroundImageFix"/>
<feBlend mode="normal" in="SourceGraphic" in2="BackgroundImageFix" result="shape"/>
<feColorMatrix in="SourceAlpha" type="matrix" values="0 0 0 0 0 0 0 0 0 0 0 0 0 0 0 0 0 0 127 0" result="hardAlpha"/>
<feOffset dx="2" dy="4"/>
<feGaussianBlur stdDeviation="2"/>
<feComposite in2="hardAlpha" operator="arithmetic" k2="-1" k3="1"/>
<feColorMatrix type="matrix" values="0 0 0 0 0 0 0 0 0 0.34 0 0 0 0 1 0 0 0 0.35 0"/>
<feBlend mode="normal" in2="shape" result="effect1_innerShadow_28611_14"/>
</filter>
<filter id="filter2_d_28611_14" x="0.100586" y="29.298" width="37.2627" height="39.0047" filterUnits="userSpaceOnUse" color-interpolation-filters="sRGB">
<feFlood flood-opacity="0" result="BackgroundImageFix"/>
<feColorMatrix in="SourceAlpha" type="matrix" values="0 0 0 0 0 0 0 0 0 0 0 0 0 0 0 0 0 0 127 0" result="hardAlpha"/>
<feOffset dy="7"/>
<feGaussianBlur stdDeviation="6"/>
<feComposite in2="hardAlpha" operator="out"/>
<feColorMatrix type="matrix" values="0 0 0 0 1 0 0 0 0 0.66 0 0 0 0 0 0 0 0 0.887336 0"/>
<feBlend mode="normal" in2="BackgroundImageFix" result="effect1_dropShadow_28611_14"/>
<feBlend mode="normal" in="SourceGraphic" in2="effect1_dropShadow_28611_14" result="shape"/>
</filter>
</defs>
</svg>
